<svg xmlns="http://www.w3.org/2000/svg" width="103" height="81.291" viewBox="0 0 103 81.291">
  <g id="Data_not_found" data-name="Data not found" transform="translate(-421 -106.709)">
    <g id="Group_40" data-name="Group 40" transform="translate(436.068 106.709)">
      <ellipse id="Ellipse_4" data-name="Ellipse 4" cx="36" cy="7" rx="36" ry="7" transform="translate(-0.068 39.291)" fill="rgba(214,214,214,0.15)"/>
      <g id="Rectangle_49" data-name="Rectangle 49" transform="translate(8.932 15.291)" fill="#fcfcfc" stroke="#e5e5e5" stroke-width="0.75">
        <rect width="56" height="30" rx="0.5" stroke="none"/>
        <rect x="0.375" y="0.375" width="55.25" height="29.25" rx="0.125" fill="none"/>
      </g>
      <g id="Path_109" data-name="Path 109" transform="translate(8.389 -0.709)" fill="#fff">
        <path d="M 55.83969116210938 16.09272003173828 L 1.428422808647156 16.09272003173828 L 12.93066310882568 1.083800673484802 L 43.41452026367188 1.083800673484802 L 55.83969116210938 16.09272003173828 Z" stroke="none"/>
        <path d="M 13.11573028564453 1.458800315856934 L 2.188262939453125 15.7177209854126 L 55.04241561889648 15.7177209854126 L 43.23813247680664 1.458800315856934 L 13.11573028564453 1.458800315856934 M 12.74559020996094 0.70880126953125 L 43.59090042114258 0.70880126953125 L 56.636962890625 16.46772003173828 L 0.6685791015625 16.46772003173828 L 12.74559020996094 0.70880126953125 Z" stroke="none" fill="#e5e5e5"/>
      </g>
      <g id="Path_111" data-name="Path 111" transform="translate(23.033 15.233)" fill="#fff">
        <path d="M 24.23317527770996 8.33941650390625 L 2.815010547637939 8.33941650390625 C 2.495230436325073 8.33941650390625 2.107250452041626 8.248387336730957 1.548230409622192 7.161417007446289 C 0.9909034967422485 6.077727317810059 0.360375702381134 4.175349235534668 -0.4277606904506683 1.195436954498291 L 27.09238815307617 1.195436954498291 C 26.96958160400391 1.940897345542908 26.56918334960938 3.394222736358643 25.98550033569336 4.972607135772705 C 25.03139877319336 7.552648067474365 24.40445899963379 8.272365570068359 24.23317527770996 8.33941650390625 Z" stroke="none"/>
        <path d="M 0.06039237976074219 1.570436954498291 C 0.7827568054199219 4.253547191619873 1.366395950317383 5.987909317016602 1.881710052490234 6.989916801452637 C 2.382890701293945 7.964416980743408 2.663990020751953 7.964416980743408 2.815010070800781 7.964416980743408 L 24.10596084594727 7.964416980743408 C 24.32392883300781 7.743154525756836 24.90317726135254 6.864086151123047 25.70956993103027 4.635336875915527 C 26.13706398010254 3.453790664672852 26.46884346008301 2.315539360046387 26.63654327392578 1.570436954498291 L 0.06039237976074219 1.570436954498291 M -0.9138202667236328 0.8204374313354492 L 27.50718116760254 0.8204374313354492 C 27.50718116760254 2.11894702911377 25.32318115234375 8.71441650390625 24.24713134765625 8.71441650390625 L 2.815010070800781 8.71441650390625 C 1.738960266113281 8.71441650390625 0.8666400909423828 7.66176700592041 -0.9138202667236328 0.8204374313354492 Z" stroke="none" fill="#e5e5e5"/>
      </g>
      <path id="Path_113" data-name="Path 113" d="M1315.048,51.146s.235-2.6,1.039-2.992a9.465,9.465,0,0,1,3.209-.161" transform="translate(-1266.016 -33.236)" fill="none" stroke="#fff" stroke-width="0.5"/>
      <path id="Path_114" data-name="Path 114" d="M1319.988,51.534s-.692-3.147-1.495-3.541-3.444,0-3.444,0" transform="translate(-1296.017 -33.236)" fill="none" stroke="#fff" stroke-width="0.5"/>
      <g id="Path_112" data-name="Path 112" transform="translate(22.464 13.412)" fill="#fff">
        <path d="M 26.81213569641113 3.39551830291748 L 1.028049111366272 3.328092336654663 L 0.4348140358924866 1.20232355594635 L 27.47394180297852 0.1789754927158356 L 26.81213569641113 3.39551830291748 Z" stroke="none"/>
        <path d="M 27.01026916503906 0.5717906951904297 L 0.9237060546875 1.559087157249451 L 1.312934875488281 2.953834772109985 L 26.50660705566406 3.019716739654541 L 27.01026916503906 0.5717906951904297 M 27.9376220703125 -0.2138400077819824 L 27.11767196655273 3.77131986618042 L 0.7431621551513672 3.702349901199341 L -0.0540771484375 0.84555983543396 L 27.9376220703125 -0.2138400077819824 Z" stroke="none" fill="#fff"/>
      </g>
    </g>
    <text id="Data_Not_found-2" data-name="Data Not found" transform="translate(421 185)" fill="#9f9f9f" font-size="15" font-family="Lato-Regular, Lato"><tspan x="0" y="0">Data Not found</tspan></text>
  </g>
</svg>
